<?xml version="1.0" encoding="utf-8"?>
<!-- Generator: Adobe Illustrator 22.0.0, SVG Export Plug-In . SVG Version: 6.00 Build 0)  -->
<svg version="1.1" id="圖層_1" xmlns="http://www.w3.org/2000/svg" xmlns:xlink="http://www.w3.org/1999/xlink" x="0px" y="0px"
	 viewBox="0 0 64 64" style="enable-background:new 0 0 64 64;" xml:space="preserve">
<style type="text/css">
	.st0{fill:#7C3DFF;}
	.st1{fill:#6029E3;}
	.st2{fill:#FFEE93;}
	.st3{fill:#FDCD04;}
	.st4{fill:#FF9811;}
	.st5{fill:#FF7956;}
</style>
<title>Burn</title>
<desc>Created with Sketch.</desc>
<g id="XMLID_645_">
	<g id="XMLID_137_">
		<g>
			<g id="XMLID_1062_">
				<g id="XMLID_1064_">
					<g id="XMLID_1065_">
						<g id="XMLID_1069_">
							<g id="XMLID_1085_">
								<g id="XMLID_1092_">
									<g id="XMLID_1100_">
										<g id="XMLID_1101_">
											<g id="XMLID_1107_">
												<g id="XMLID_1114_">
													<g id="XMLID_1115_">
														<g id="XMLID_1119_">
															<g id="XMLID_1120_">
																<circle id="XMLID_1121_" class="st0" cx="32" cy="32" r="32"/>
															</g>
														</g>
													</g>
												</g>
											</g>
										</g>
									</g>
								</g>
							</g>
						</g>
					</g>
				</g>
			</g>
		</g>
	</g>
	<path id="XMLID_837_" class="st1" d="M64,32c0-0.3,0-0.5,0-0.8L36.2,3.4c0,0-11.6,14.4-11.9,25.4l-8-7.9c0,0-2.9,13.1,2.2,16.1
		l-3.8,11.4L30.3,64c0.6,0,1.1,0,1.7,0C49.7,64,64,49.7,64,32z"/>
	<g id="XMLID_366_">
		<path id="XMLID_372_" class="st2" d="M54,33.4c0,0-1,1.2-2.8,2.2c-1.2,0.7-2.8,1.1-2.8,1.1c4.1-6.3-0.8-15.9-0.8-15.9
			c-0.8,2.4-2.5,4.2-4.2,5.4c0,0,1.1-5.8-3.8-9.8c-4.5-3.7-3.4-13-3.4-13S20.2,15,20.9,26.2c0,0-3.4-2.1-4.5-5.4
			c0,0-4.9,9.6-0.8,15.9c0,0-1.7-0.4-2.8-1.1c-1.8-1-2.8-2.2-2.8-2.2S7.1,45.9,20.3,52.1C30.7,56.9,32,59.9,32,59.9
			s1.3-2.9,11.7-7.8C56.9,45.9,54,33.4,54,33.4L54,33.4z"/>
		<path id="XMLID_371_" class="st3" d="M43.7,52.1C33.3,56.9,32,59.9,32,59.9v-53c2.4-2.2,4.2-3.5,4.2-3.5s-1.1,9.3,3.4,13
			c4.9,4,3.8,9.8,3.8,9.8c1.7-1.2,3.4-2.9,4.2-5.4c0,0,4.9,9.6,0.8,15.9c0,0,1.7-0.4,2.8-1.1c1.8-1,2.8-2.2,2.8-2.2
			S56.9,45.9,43.7,52.1L43.7,52.1z"/>
		<path id="XMLID_368_" class="st4" d="M32,53.6c0,0-15.7-6.2-11.9-15.8c3.3-8.4,11.2-7.2,10.7-20.1c0,0,8.5,5,8,12.9
			c-0.6,9.1,4.6,9.6,7.5,9.3c0,0,0.2,5.7-8.5,8.4C33.8,49.5,32,53.6,32,53.6z"/>
		<path id="XMLID_367_" class="st5" d="M37.8,48.3c-4,1.2-5.8,5.4-5.8,5.4V18.5c2.3,1.7,7.1,6.1,6.7,12c-0.6,9.1,4.6,9.6,7.5,9.3
			C46.3,39.9,46.5,45.5,37.8,48.3L37.8,48.3z"/>
	</g>
</g>
</svg>
