<?xml version="1.0" encoding="utf-8"?>
<!-- Generator: Adobe Illustrator 22.0.0, SVG Export Plug-In . SVG Version: 6.00 Build 0)  -->
<svg version="1.1" id="圖層_1" xmlns="http://www.w3.org/2000/svg" xmlns:xlink="http://www.w3.org/1999/xlink" x="0px" y="0px"
	 viewBox="0 0 64 64" style="enable-background:new 0 0 64 64;" xml:space="preserve">
<style type="text/css">
	.st0{fill:#7C3DFF;}
	.st1{fill:#6029E3;}
	.st2{fill:#00E8F2;}
	.st3{fill:#00B7BE;}
	.st4{fill:#FFEC97;}
	.st5{fill:#FFD400;}
	.st6{fill:#FFFFFF;}
	.st7{fill:#FFF5CB;}
	.st8{fill:#552DB3;}
	.st9{fill:#370F8B;}
	.st10{fill:none;stroke:#370F8B;stroke-width:1.5;}
</style>
<g>
	<g id="XMLID_137_">
		<g>
			<g id="XMLID_1062_">
				<g id="XMLID_1064_">
					<g id="XMLID_1065_">
						<g id="XMLID_1069_">
							<g id="XMLID_1085_">
								<g id="XMLID_1092_">
									<g id="XMLID_1100_">
										<g id="XMLID_1101_">
											<g id="XMLID_1107_">
												<g id="XMLID_1114_">
													<g id="XMLID_1115_">
														<g id="XMLID_1119_">
															<g id="XMLID_1120_">
																<circle id="XMLID_1121_" class="st0" cx="32" cy="32" r="32"/>
															</g>
														</g>
													</g>
												</g>
											</g>
										</g>
									</g>
								</g>
							</g>
						</g>
					</g>
				</g>
			</g>
		</g>
	</g>
	<path class="st1" d="M64,31.2L48.4,15.6L15.2,48.9L30.3,64c0.6,0,1.1,0,1.7,0c17.7,0,32-14.3,32-32C64,31.7,64,31.5,64,31.2z"/>
	<g>
		<path class="st2" d="M46.5,17.5c-4.3-4.3-11.3-4.3-15.6,0c-4.3,4.3-4.3,11.3,0,15.6c4.3,4.3,11.3,4.3,15.6,0
			C50.8,28.8,50.8,21.8,46.5,17.5z"/>
		<path class="st3" d="M46.5,33.1c-4.3,4.3-11.3,4.3-15.6,0l15.6-15.6C50.8,21.8,50.8,28.8,46.5,33.1z"/>
		<path class="st4" d="M27.3,32.8l3.9,3.9l-2.9,2.9l-3.9-3.9L27.3,32.8z"/>
		<path class="st5" d="M26.3,37.7l2.9-2.9l1.9,1.9l-2.9,2.9L26.3,37.7z"/>
		<path class="st6" d="M48.6,15.4c-5.5-5.5-14.3-5.5-19.8,0c-5.5,5.5-5.5,14.3,0,19.8c5.5,5.5,14.3,5.5,19.8,0
			C54.1,29.7,54.1,20.8,48.6,15.4z M31.2,32.8c-4.2-4.2-4.2-10.9,0-15s10.9-4.2,15,0s4.2,10.9,0,15S35.3,37,31.2,32.8z"/>
		<path class="st7" d="M48.6,15.4l-2.4,2.4c4.2,4.2,4.2,10.9,0,15c-4.2,4.2-10.9,4.2-15,0l-2.4,2.4c0.7,0.7,1.4,1.2,2.1,1.7
			c5.4,3.6,12.9,3.1,17.7-1.7C54.1,29.7,54.1,20.8,48.6,15.4z"/>
		<path class="st8" d="M23.7,34.6l5.7,5.7L18,51.7l-5.7-5.7L23.7,34.6z"/>
		<path class="st9" d="M15.2,48.8l11.4-11.4l2.9,2.9L18,51.7L15.2,48.8z"/>
	</g>
	<path class="st10" d="M32.2,28.3l4.1-4.1l3.3,3.1l5.7-5.7"/>
</g>
</svg>
