<?xml version="1.0" encoding="utf-8"?>
<!-- Generator: Adobe Illustrator 22.0.0, SVG Export Plug-In . SVG Version: 6.00 Build 0)  -->
<svg width="64px" height="64px" version="1.1" id="圖層_1" xmlns="http://www.w3.org/2000/svg" xmlns:xlink="http://www.w3.org/1999/xlink" x="0px" y="0px"
	 viewBox="0 0 64 64" style="enable-background:new 0 0 64 64;" xml:space="preserve">
<style type="text/css">
	.st0{fill:#7C3DFF;}
	.st1{fill:#6029E3;}
	.st2{fill:#FFFFFF;}
	.st3{fill:#D0D1D3;}
	.st4{fill:#552DB3;}
	.st5{fill:#370F8B;}
</style>
<title>Send</title>
<desc>Created with Sketch.</desc>
<g>
	<circle class="st0" cx="32" cy="32" r="32"/>
	<path class="st1" d="M63.9,28.9L48.1,13.2l-9.4,13.1l-2,2.2L28.2,20l-0.7,1.5l-6.4-6.4L16,20.5l1.4,5.9l12.7,12.7L15.8,50.7
		L29,63.9c1,0.1,2,0.1,3,0.1c17.7,0,32-14.3,32-32C64,31,63.9,29.9,63.9,28.9z"/>
	<path class="st2" d="M46.1,30.2H34.3c-1.6,0-3-1.3-3-3V15.4c0-1.6,1.3-3,3-3h11.9c1.6,0,3,1.3,3,3v11.9
		C49.1,28.9,47.8,30.2,46.1,30.2z"/>
	<path class="st3" d="M31.3,21.3v6c0,1.6,1.3,3,3,3h11.9c1.6,0,3-1.3,3-3v-6H31.3z"/>
	<g>
		<path class="st4" d="M36.9,23.2h-0.4c-1,0-1.8-0.8-1.8-1.8s0.8-1.8,1.8-1.8h0.4c1,0,1.8,0.8,1.8,1.8
			C38.7,22.3,37.9,23.2,36.9,23.2z"/>
		<path class="st4" d="M31.6,23.2h-0.4c-1,0-1.8-0.8-1.8-1.8s0.8-1.8,1.8-1.8h0.4c1,0,1.8,0.8,1.8,1.8S32.6,23.2,31.6,23.2z"/>
		<path class="st4" d="M43.6,23.2h-0.4c-1,0-1.8-0.8-1.8-1.8s0.8-1.8,1.8-1.8h0.4c1,0,1.8,0.8,1.8,1.8
			C45.4,22.3,44.6,23.2,43.6,23.2z"/>
		<path class="st4" d="M27,19.5h-7.6l1.8-1.8c0.7-0.7,0.7-1.9,0-2.6c-0.7-0.7-1.9-0.7-2.6,0l-5,5c-0.7,0.7-0.7,1.9,0,2.6l5,5
			c0.4,0.4,0.8,0.5,1.3,0.5s0.9-0.2,1.3-0.5c0.7-0.7,0.7-1.9,0-2.6l-1.8-1.8H27c1,0,1.8-0.8,1.8-1.8S28,19.5,27,19.5z"/>
	</g>
	<g>
		<path class="st5" d="M34.7,21.3C34.7,21.3,34.7,21.3,34.7,21.3c0,1,0.8,1.9,1.8,1.9h0.4c1,0,1.8-0.8,1.8-1.8c0,0,0,0,0,0H34.7z"/>
		<path class="st5" d="M29.4,21.3C29.4,21.3,29.4,21.3,29.4,21.3c0,1,0.8,1.9,1.8,1.9h0.4c1,0,1.8-0.8,1.8-1.8c0,0,0,0,0,0H29.4z"/>
		<path class="st5" d="M41.4,21.3C41.4,21.3,41.4,21.3,41.4,21.3c0,1,0.8,1.9,1.8,1.9h0.4c1,0,1.8-0.8,1.8-1.8c0,0,0,0,0,0H41.4z"/>
		<path class="st5" d="M13.1,21.3c0,0.5,0.2,1,0.5,1.3l5,5c0.4,0.4,0.8,0.5,1.3,0.5s0.9-0.2,1.3-0.5c0.7-0.7,0.7-1.9,0-2.6l-1.8-1.8
			H27c1,0,1.8-0.8,1.8-1.8c0,0,0,0,0,0L13.1,21.3L13.1,21.3z"/>
	</g>
	<path class="st2" d="M17.9,33.8h11.9c1.6,0,3,1.3,3,3v11.9c0,1.6-1.3,3-3,3H17.9c-1.6,0-3-1.3-3-3V36.7
		C14.9,35.1,16.2,33.8,17.9,33.8z"/>
	<path class="st3" d="M14.9,42.6v6c0,1.6,1.3,3,3,3h11.9c1.6,0,3-1.3,3-3v-6H14.9z"/>
	<g>
		<path class="st4" d="M27.4,44.5h-0.4c-1,0-1.8-0.8-1.8-1.8s0.8-1.8,1.8-1.8h0.4c1,0,1.8,0.8,1.8,1.8
			C29.3,43.7,28.5,44.5,27.4,44.5z"/>
		<path class="st4" d="M32.8,44.5h-0.4c-1,0-1.8-0.8-1.8-1.8s0.8-1.8,1.8-1.8h0.4c1,0,1.8,0.8,1.8,1.8
			C34.6,43.7,33.8,44.5,32.8,44.5z"/>
		<path class="st4" d="M20.8,44.5h-0.4c-1,0-1.8-0.8-1.8-1.8s0.8-1.8,1.8-1.8h0.4c1,0,1.8,0.8,1.8,1.8
			C22.6,43.7,21.8,44.5,20.8,44.5z"/>
		<path class="st4" d="M50.4,41.4l-5-5c-0.7-0.7-1.9-0.7-2.6,0c-0.7,0.7-0.7,1.9,0,2.6l1.8,1.8H37c-1,0-1.8,0.8-1.8,1.8
			c0,1,0.8,1.8,1.8,1.8h7.6l-1.8,1.8c-0.7,0.7-0.7,1.9,0,2.6c0.4,0.4,0.8,0.5,1.3,0.5s0.9-0.2,1.3-0.5l5-5
			C51.1,43.2,51.1,42.1,50.4,41.4z"/>
	</g>
	<g>
		<path class="st5" d="M25.3,42.6c0,0,0,0.1,0,0.1c0,1,0.8,1.8,1.8,1.8h0.4c1,0,1.8-0.8,1.8-1.8c0,0,0-0.1,0-0.1H25.3z"/>
		<path class="st5" d="M30.6,42.6c0,0,0,0.1,0,0.1c0,1,0.8,1.8,1.8,1.8h0.4c1,0,1.8-0.8,1.8-1.8c0,0,0-0.1,0-0.1H30.6z"/>
		<path class="st5" d="M18.6,42.6c0,0,0,0.1,0,0.1c0,1,0.8,1.8,1.8,1.8h0.4c1,0,1.8-0.8,1.8-1.8c0,0,0-0.1,0-0.1H18.6z"/>
		<path class="st5" d="M35.2,42.6c0,0,0,0.1,0,0.1c0,1,0.8,1.8,1.8,1.8h7.6l-1.8,1.8c-0.7,0.7-0.7,1.9,0,2.6
			c0.4,0.4,0.8,0.5,1.3,0.5s0.9-0.2,1.3-0.5l5-5c0.4-0.4,0.6-0.9,0.5-1.4L35.2,42.6L35.2,42.6z"/>
	</g>
</g>
</svg>
