<?xml version="1.0" encoding="utf-8"?>
<!-- Generator: Adobe Illustrator 22.0.0, SVG Export Plug-In . SVG Version: 6.00 Build 0)  -->
<svg version="1.1" id="圖層_1" xmlns="http://www.w3.org/2000/svg" xmlns:xlink="http://www.w3.org/1999/xlink" x="0px" y="0px"
	 viewBox="0 0 64 64" style="enable-background:new 0 0 64 64;" xml:space="preserve">
<style type="text/css">
	.st0{fill:#64D300;}
	.st1{fill:#FFFFFF;}
	.st2{font-family:'Arial-BoldMT';}
	.st3{font-size:11.4373px;}
</style>
<title>Send</title>
<desc>Created with Sketch.</desc>
<g>
	<circle class="st0" cx="32" cy="32" r="32"/>
	<path class="st1" d="M51.7,29.2L51.7,29.2C51.7,29.1,51.7,29.1,51.7,29.2L51.7,29.2l-0.1-9.1c0-3.9-3.6-6.8-7.3-5.8
		c-3.4,0.8-6.5,2.6-9.5,5.2l0,0c0-3.4-3.1-6-6.5-5.3c-9.2,1.9-16.9,10.3-15.9,19.1c0,0,0,0,0,0.1c0,1.6,1.3,2.8,2.8,2.8
		s2.7-1.1,2.8-2.6c1.5-7,4.4-11.6,8.8-13c1.2-0.4,2.5,0.6,2.5,1.9v10.6c0,0.1,0,0.2,0,0.3c0,1.6,1.3,2.8,2.8,2.8s2.8-1.2,2.8-2.7
		c0.1-0.7,0.2-1.5,0.3-2.4c0.6-4.7,4.2-8.9,8.4-10.4c1.3-0.4,2.6,0.5,2.6,1.8l-0.1,6.8l0,0c0,1.5,1.3,2.8,2.8,2.8
		C50.4,31.9,51.6,30.7,51.7,29.2L51.7,29.2z"/>
	<text transform="matrix(1 0 0 1 19.9268 47.6938)" class="st1 st2 st3">USD</text>
</g>
</svg>
