<?xml version="1.0" encoding="utf-8"?>
<!-- Generator: Adobe Illustrator 22.0.0, SVG Export Plug-In . SVG Version: 6.00 Build 0)  -->
<svg version="1.1" id="圖層_1" xmlns="http://www.w3.org/2000/svg" xmlns:xlink="http://www.w3.org/1999/xlink" x="0px" y="0px"
	 viewBox="0 0 250 64" style="enable-background:new 0 0 250 64;" xml:space="preserve">
<style type="text/css">
	.st0{clip-path:url(#SVGID_2_);fill:url(#SVGID_3_);}
	.st1{clip-path:url(#SVGID_5_);fill:url(#SVGID_6_);}
	.st2{clip-path:url(#SVGID_8_);fill:url(#SVGID_9_);}
	.st3{clip-path:url(#SVGID_11_);fill:url(#SVGID_12_);}
</style>
<title>atoms / logo / full / light</title>
<desc>Created with Sketch.</desc>
<g>
	<g>
		<defs>
			<path id="SVGID_1_" d="M120.8,38c0-15.7,12.1-25.4,25.3-25.4c14.8,0,25.3,11.5,25.3,24.9S160.9,62.4,146,62.4
				C131,62.4,120.8,50.4,120.8,38L120.8,38z M133.1,37.4c0,7.3,5,14.2,13.2,14.2c8.7,0,12.9-7.9,12.9-14.1c0-6.2-4.2-14.2-13-14.2
				C137.7,23.4,133.1,30.6,133.1,37.4L133.1,37.4z"/>
		</defs>
		<clipPath id="SVGID_2_">
			<use xlink:href="#SVGID_1_"  style="overflow:visible;"/>
		</clipPath>
		<linearGradient id="SVGID_3_" gradientUnits="userSpaceOnUse" x1="-5.439" y1="39.5271" x2="251.308" y2="39.5271">
			<stop  offset="0" style="stop-color:#370F8B"/>
			<stop  offset="1" style="stop-color:#7C3DFF"/>
		</linearGradient>
		<rect x="-5.4" y="-15.3" class="st0" width="256.7" height="109.6"/>
	</g>
	<g>
		<defs>
			<path id="SVGID_4_" d="M171.8,13.5h12.6l9.7,33.6l9.8-33.6h12.6l-16.1,47.9h-12.6L171.8,13.5z"/>
		</defs>
		<clipPath id="SVGID_5_">
			<use xlink:href="#SVGID_4_"  style="overflow:visible;"/>
		</clipPath>
		<linearGradient id="SVGID_6_" gradientUnits="userSpaceOnUse" x1="-5.439" y1="39.5271" x2="251.308" y2="39.5271">
			<stop  offset="0" style="stop-color:#370F8B"/>
			<stop  offset="1" style="stop-color:#7C3DFF"/>
		</linearGradient>
		<rect x="-5.4" y="-15.3" class="st1" width="256.7" height="109.6"/>
	</g>
	<g>
		<defs>
			<path id="SVGID_7_" d="M221.9,13.5H249v10.8h-14.9v7.5h14.4v10.8h-14.4v8.2H249v10.8h-27.1V13.5z"/>
		</defs>
		<clipPath id="SVGID_8_">
			<use xlink:href="#SVGID_7_"  style="overflow:visible;"/>
		</clipPath>
		<linearGradient id="SVGID_9_" gradientUnits="userSpaceOnUse" x1="-5.439" y1="39.5271" x2="251.308" y2="39.5271">
			<stop  offset="0" style="stop-color:#370F8B"/>
			<stop  offset="1" style="stop-color:#7C3DFF"/>
		</linearGradient>
		<rect x="-5.4" y="-15.3" class="st2" width="256.7" height="109.6"/>
	</g>
	<g>
		<defs>
			<path id="SVGID_10_" d="M115.4,44.2l0-0.3c0,0,0,0,0,0c0,0,0,0,0,0l-0.2-26.1c0-11.2-10.4-19.6-21.3-16.9
				C84.1,3.2,75,8.2,66.4,15.9v0c0-10-9.1-17.5-18.9-15.5C20.7,5.9-1.5,30.1,1.2,55.7c0,0.1,0,0.1,0,0.2c0,4.5,3.7,8.2,8.2,8.2
				c4.3,0,7.8-3.3,8.1-7.5c4.3-20.4,12.7-33.7,25.7-37.8c3.6-1.1,7.2,1.6,7.2,5.4V55c0,0.3-0.1,0.6-0.1,0.9c0,4.5,3.7,8.2,8.2,8.2
				c4.4,0,8-3.5,8.2-7.9c0.4-2,0.6-4.4,0.9-6.9C69.1,35.6,79.6,23.4,91.8,19c3.6-1.3,7.5,1.4,7.5,5.3L99.1,44l0,0
				c0.1,4.4,3.7,8,8.2,8C111.7,52,115.2,48.5,115.4,44.2L115.4,44.2z"/>
		</defs>
		<clipPath id="SVGID_11_">
			<use xlink:href="#SVGID_10_"  style="overflow:visible;"/>
		</clipPath>
		<linearGradient id="SVGID_12_" gradientUnits="userSpaceOnUse" x1="-1.1177" y1="39.5271" x2="255.6293" y2="39.5271">
			<stop  offset="0" style="stop-color:#370F8B"/>
			<stop  offset="1" style="stop-color:#7C3DFF"/>
		</linearGradient>
		<rect x="-1.1" y="-15.3" class="st3" width="256.7" height="109.6"/>
	</g>
</g>
</svg>
